<svg width="85" height="62" viewBox="0 0 85 62" fill="none" xmlns="http://www.w3.org/2000/svg">
<path d="M66.416 62H48.1794V43.5271H54.2062C55.7346 43.5271 56.6377 41.786 55.7346 40.5324L44.011 24.2707C43.2642 23.2261 41.7184 23.2261 40.9716 24.2707L29.2481 40.5324C28.3449 41.786 29.2307 43.5271 30.7765 43.5271H36.8032V62H16.3782C7.25991 61.4951 0 52.9464 0 43.6838C0 37.294 3.45627 31.7225 8.57989 28.7105C8.11095 27.4395 7.8678 26.0814 7.8678 24.6538C7.8678 18.1247 13.1304 12.8492 19.6434 12.8492C21.0503 12.8492 22.405 13.093 23.6729 13.563C27.4418 5.55406 35.5701 0 45.0184 0C57.2456 0.0174108 67.3192 9.40185 68.4655 21.3631C77.8617 22.9823 85 31.7051 85 41.5771C85 52.1281 76.8022 61.2687 66.416 62Z" fill="#D5D5D5"/>
</svg>
