<svg width="24" height="25" viewBox="0 0 24 25" fill="none" xmlns="http://www.w3.org/2000/svg">
<path fill-rule="evenodd" clip-rule="evenodd" d="M15.8834 24.4998H3.06974C2.25598 24.4998 1.47459 24.1761 0.898597 23.6012C0.32349 23.025 0.000341819 22.2442 0 21.4301V3.56974C0 2.75598 0.323718 1.97459 0.898597 1.3986C1.47484 0.82349 2.25561 0.500342 3.06974 0.5H12.654C13.172 0.5 13.6687 0.705394 14.0349 1.07265L18.9621 5.99986C19.3293 6.366 19.5347 6.86274 19.5347 7.38069V12.0143C18.7677 11.9016 17.987 11.9205 17.2263 12.0701C16.9103 12.1319 16.6145 12.2708 16.3652 12.4745C16.1159 12.6782 15.9209 12.9404 15.7975 13.2378L15.6077 13.6954L15.1154 13.6318C14.7962 13.5898 14.4716 13.6275 14.1705 13.7414C13.8694 13.8554 13.6011 14.042 13.3897 14.2848C12.8076 14.9523 12.3606 15.7264 12.0736 16.5642C11.9693 16.8687 11.9418 17.1942 11.9936 17.5118C12.0454 17.8294 12.1749 18.1293 12.3705 18.3849L12.673 18.7789L12.3705 19.173C12.1749 19.4285 12.0454 19.7284 11.9936 20.046C11.9418 20.3636 11.9693 20.6891 12.0736 20.9936C12.3606 21.8314 12.8076 22.6055 13.3897 23.273C13.8194 23.7664 14.4669 24.0109 15.1154 23.926L15.6077 23.8624L15.7975 24.3201C15.8231 24.3815 15.8521 24.4418 15.8834 24.4998ZM4.74415 15.5696H9.76736C9.9894 15.5696 10.2023 15.4814 10.3594 15.3244C10.5164 15.1674 10.6046 14.9545 10.6046 14.7324C10.6046 14.5104 10.5164 14.2975 10.3594 14.1404C10.2023 13.9834 9.9894 13.8952 9.76736 13.8952H4.74415C4.52211 13.8952 4.30916 13.9834 4.15216 14.1404C3.99515 14.2975 3.90694 14.5104 3.90694 14.7324C3.90694 14.9545 3.99515 15.1674 4.15216 15.3244C4.30916 15.4814 4.52211 15.5696 4.74415 15.5696ZM12.558 2.45347V6.36042C12.558 6.65647 12.6756 6.9404 12.885 7.14974C13.0943 7.35908 13.3783 7.47669 13.6743 7.47669H17.5812L12.558 2.45347ZM4.74415 11.6627H13.6743C13.8963 11.6627 14.1093 11.5745 14.2663 11.4175C14.4233 11.2605 14.5115 11.0475 14.5115 10.8255C14.5115 10.6035 14.4233 10.3905 14.2663 10.2335C14.1093 10.0765 13.8963 9.98829 13.6743 9.98829H4.74415C4.52211 9.98829 4.30916 10.0765 4.15216 10.2335C3.99515 10.3905 3.90694 10.6035 3.90694 10.8255C3.90694 11.0475 3.99515 11.2605 4.15216 11.4175C4.30916 11.5745 4.52211 11.6627 4.74415 11.6627ZM4.74415 19.4766H9.76736C9.9894 19.4766 10.2023 19.3884 10.3594 19.2314C10.5164 19.0744 10.6046 18.8614 10.6046 18.6394C10.6046 18.4173 10.5164 18.2044 10.3594 18.0474C10.2023 17.8904 9.9894 17.8022 9.76736 17.8022H4.74415C4.52211 17.8022 4.30916 17.8904 4.15216 18.0474C3.99515 18.2044 3.90694 18.4173 3.90694 18.6394C3.90694 18.8614 3.99515 19.0744 4.15216 19.2314C4.30916 19.3884 4.52211 19.4766 4.74415 19.4766Z" fill="white"/>
<path fill-rule="evenodd" clip-rule="evenodd" d="M20.2562 13.6649L20.6513 14.6193C20.802 14.6952 20.9482 14.78 21.09 14.8716L22.1147 14.7376C22.2515 14.72 22.3904 14.7364 22.5193 14.7853C22.6481 14.8342 22.763 14.914 22.8537 15.0178C23.3404 15.5759 23.7144 16.2245 23.9555 16.9255C24 17.0561 24.0116 17.1956 23.9892 17.3317C23.9668 17.4679 23.9111 17.5963 23.8271 17.7058L23.1998 18.5251C23.2087 18.6937 23.2087 18.8633 23.1998 19.0308L23.8271 19.8512C23.9111 19.9606 23.9668 20.0891 23.9892 20.2253C24.0116 20.3614 24 20.5009 23.9555 20.6315C23.7147 21.3325 23.3405 21.9803 22.8537 22.5392C22.763 22.643 22.6481 22.7228 22.5193 22.7717C22.3904 22.8206 22.2515 22.8369 22.1147 22.8194C22.1147 22.8194 21.09 22.6854 21.0911 22.6843C20.9496 22.7767 20.8032 22.8613 20.6524 22.9377L20.2562 23.8921C20.2034 24.0195 20.1199 24.1318 20.0132 24.2191C19.9065 24.3064 19.7798 24.3658 19.6444 24.3922C18.9169 24.5351 18.1685 24.5351 17.4409 24.3922C17.3056 24.3658 17.1789 24.3064 17.0722 24.2191C16.9654 24.1318 16.882 24.0195 16.8292 23.8921L16.434 22.9377C16.2833 22.8617 16.1368 22.7775 15.9954 22.6854L14.9706 22.8194C14.8339 22.837 14.6949 22.8207 14.566 22.7718C14.4371 22.723 14.3223 22.6431 14.2316 22.5392C13.744 21.9809 13.3698 21.3329 13.1299 20.6315C13.0854 20.501 13.0737 20.3615 13.0959 20.2254C13.1181 20.0894 13.1735 19.9608 13.2571 19.8512L13.8856 19.0319C13.8767 18.8634 13.8767 18.6947 13.8856 18.5262L13.2571 17.7058C13.1735 17.5962 13.1181 17.4676 13.0959 17.3315C13.0737 17.1955 13.0854 17.056 13.1299 16.9255C13.3699 16.2245 13.7438 15.5759 14.2316 15.0178C14.3223 14.9139 14.4371 14.834 14.566 14.7851C14.6949 14.7363 14.8339 14.7199 14.9706 14.7376C14.9706 14.7376 15.9954 14.8716 15.9942 14.8727C16.136 14.78 16.2822 14.6952 16.4329 14.6193L16.8292 13.6649C16.882 13.5375 16.9654 13.4251 17.0722 13.3379C17.1789 13.2506 17.3056 13.1911 17.4409 13.1648C18.1685 13.0219 18.9169 13.0219 19.6444 13.1648C19.7798 13.1911 19.9065 13.2506 20.0132 13.3379C20.1199 13.4251 20.2034 13.5375 20.2562 13.6649ZM18.5427 17.1041C18.3227 17.1042 18.1049 17.1476 17.9017 17.2318C17.6986 17.316 17.5139 17.4395 17.3585 17.5951C17.203 17.7507 17.0797 17.9353 16.9956 18.1386C16.9115 18.3418 16.8682 18.5597 16.8683 18.7796C16.8683 18.9996 16.9117 19.2174 16.996 19.4205C17.0802 19.6237 17.2037 19.8083 17.3593 19.9638C17.5148 20.1193 17.6995 20.2426 17.9028 20.3267C18.106 20.4108 18.3238 20.4541 18.5438 20.454C18.988 20.4539 19.414 20.2773 19.728 19.963C20.042 19.6488 20.2183 19.2227 20.2182 18.7785C20.2181 18.3343 20.0414 17.9083 19.7272 17.5943C19.413 17.2803 18.9869 17.1039 18.5427 17.1041Z" fill="white"/>
</svg>
