<svg width="24" height="25" viewBox="0 0 24 25" fill="none" xmlns="http://www.w3.org/2000/svg">
<path d="M6 14.2139H0.857143C0.383756 14.2139 0 14.5976 0 15.071V23.6424C0 24.1158 0.383756 24.4996 0.857143 24.4996H6C6.47339 24.4996 6.85714 24.1158 6.85714 23.6424V15.071C6.85714 14.5976 6.47339 14.2139 6 14.2139Z" fill="white"/>
<path d="M23.1426 7.35742H17.9997C17.5263 7.35742 17.1426 7.74118 17.1426 8.21456V23.6431C17.1426 24.1165 17.5263 24.5003 17.9997 24.5003H23.1426C23.616 24.5003 23.9997 24.1165 23.9997 23.6431V8.21456C23.9997 7.74118 23.616 7.35742 23.1426 7.35742Z" fill="white"/>
<path d="M14.5713 0.5H9.42843C8.95504 0.5 8.57129 0.883756 8.57129 1.35714V23.6429C8.57129 24.1162 8.95504 24.5 9.42843 24.5H14.5713C15.0447 24.5 15.4284 24.1162 15.4284 23.6429V1.35714C15.4284 0.883756 15.0447 0.5 14.5713 0.5Z" fill="white"/>
</svg>
