<svg width="16" height="16" viewBox="0 0 16 16" fill="none" xmlns="http://www.w3.org/2000/svg">
<path d="M8.00003 11C7.93436 11.0001 7.86933 10.9872 7.80866 10.9621C7.748 10.9369 7.6929 10.9 7.64653 10.8535L2.64653 5.85353C2.45116 5.65816 2.45116 5.34178 2.64653 5.14653C2.84191 4.95128 3.15828 4.95116 3.35353 5.14653L8.00003 9.79303L12.6465 5.14653C12.8419 4.95116 13.1583 4.95116 13.3535 5.14653C13.5488 5.34191 13.5489 5.65828 13.3535 5.85353L8.35353 10.8535C8.30716 10.9 8.25206 10.9369 8.1914 10.9621C8.13073 10.9872 8.0657 11.0001 8.00003 11Z" fill="black"/>
</svg>
