<svg width="14" height="14" viewBox="0 0 14 14" fill="none" xmlns="http://www.w3.org/2000/svg">
<path d="M5.70349 14C5.56595 14 5.43404 13.9422 5.33678 13.8392C5.23953 13.7362 5.18489 13.5966 5.18489 13.451V8.17216L0.377436 2.5749C0.18819 2.35413 0.0635445 2.07995 0.0186256 1.78564C-0.0262932 1.49133 0.0104464 1.18955 0.124385 0.916915C0.238324 0.644282 0.424564 0.41252 0.660501 0.249759C0.896438 0.0869977 1.17193 0.000234767 1.45354 0H12.5465C12.8281 0.000234767 13.1036 0.0869977 13.3395 0.249759C13.5754 0.41252 13.7617 0.644282 13.8756 0.916915C13.9896 1.18955 14.0263 1.49133 13.9814 1.78564C13.9365 2.07995 13.8118 2.35413 13.6226 2.5749L8.81511 8.17216V11.2549C8.81506 11.3371 8.79756 11.4183 8.7639 11.4924C8.73024 11.5666 8.68128 11.6317 8.62064 11.6831L6.02762 13.8792C5.93568 13.9573 5.82136 13.9999 5.70349 14ZM1.45354 1.09804C1.37284 1.09825 1.29393 1.12322 1.22635 1.16993C1.15878 1.21663 1.10544 1.28307 1.07279 1.3612C1.04015 1.43933 1.02959 1.5258 1.0424 1.61015C1.05521 1.6945 1.09083 1.77311 1.14497 1.83647L6.08726 7.60118C6.17193 7.69975 6.21986 7.82757 6.2221 7.96078V12.309L7.77791 10.9804V7.96078C7.7776 7.82377 7.82569 7.69159 7.91274 7.5902L12.855 1.82549C12.9059 1.76185 12.9388 1.68425 12.9498 1.60167C12.9608 1.5191 12.9496 1.4349 12.9173 1.35882C12.885 1.28274 12.8331 1.21788 12.7674 1.17174C12.7018 1.12559 12.6252 1.10004 12.5465 1.09804H1.45354Z" fill="black"/>
</svg>
