<svg width="24" height="25" viewBox="0 0 24 25" fill="none" xmlns="http://www.w3.org/2000/svg">
<path d="M18.7072 0.496338H5.30787C3.90119 0.496338 2.55211 1.05514 1.55744 2.04982C0.562759 3.0445 0.00395496 4.39357 0.00395496 5.80026V19.1996C-0.00131832 19.2179 -0.00131832 19.2372 0.00395496 19.2555C0.0186609 20.6524 0.58395 21.9872 1.57704 22.9699C2.57013 23.9525 3.91081 24.5036 5.30787 24.5035H18.7072C20.0986 24.5008 21.4331 23.9514 22.4231 22.9739C23.4132 21.9964 23.9795 20.669 24 19.2778V5.80026C24 4.3955 23.4427 3.04812 22.4505 2.05376C21.4582 1.0594 20.112 0.499295 18.7072 0.496338ZM22.3362 16.9664L17.6688 11.629C17.3722 11.3133 17.0142 11.0617 16.6166 10.8897C16.2191 10.7177 15.7905 10.6289 15.3574 10.6289C14.9243 10.6289 14.4957 10.7177 14.0982 10.8897C13.7006 11.0617 13.3426 11.3133 13.046 11.629L9.84133 15.2915L8.79171 14.0185C8.50248 13.6716 8.14052 13.3924 7.73144 13.2009C7.32237 13.0093 6.87619 12.91 6.42449 12.91C5.97279 12.91 5.52661 13.0093 5.11753 13.2009C4.70846 13.3924 4.3465 13.6716 4.05727 14.0185L1.67888 16.8882V5.80026C1.68182 4.83869 2.06511 3.91735 2.74504 3.23742C3.42497 2.55749 4.34631 2.1742 5.30787 2.17126H18.7072C19.6688 2.1742 20.5902 2.55749 21.2701 3.23742C21.95 3.91735 22.3333 4.83869 22.3362 5.80026V16.9664Z" fill="white"/>
<path d="M6.42464 9.15005C7.65801 9.15005 8.65786 8.1502 8.65786 6.91682C8.65786 5.68344 7.65801 4.68359 6.42464 4.68359C5.19126 4.68359 4.19141 5.68344 4.19141 6.91682C4.19141 8.1502 5.19126 9.15005 6.42464 9.15005Z" fill="white"/>
</svg>
