<svg width="20" height="16" viewBox="0 0 20 16" fill="none" xmlns="http://www.w3.org/2000/svg">
<path d="M2.06899 0C0.926209 0 0 0.926209 0 2.06895C0 3.2117 0.926209 4.13794 2.06899 4.13794C3.21173 4.13794 4.13794 3.21173 4.13794 2.06895C4.13794 0.926176 3.21173 0 2.06899 0ZM2.06899 5.51722C0.926209 5.51722 0 6.44346 0 7.58621C0 8.72899 0.926209 9.6552 2.06899 9.6552C3.21173 9.6552 4.13794 8.72899 4.13794 7.58621C4.13794 6.44346 3.21173 5.51722 2.06899 5.51722ZM2.06899 11.0345C0.926209 11.0345 0 11.9607 0 13.1034C0 14.2462 0.926209 15.1724 2.06899 15.1724C3.21173 15.1724 4.13794 14.2462 4.13794 13.1034C4.13794 11.9607 3.21173 11.0345 2.06899 11.0345ZM7.58621 3.44827H18.6207C19.3827 3.44827 20 2.83101 20 2.06895C20 1.3069 19.3827 0.68964 18.6207 0.68964H7.58621C6.82415 0.68964 6.2069 1.3069 6.2069 2.06895C6.2069 2.83101 6.82415 3.44827 7.58621 3.44827ZM18.6207 6.2069H7.58621C6.82415 6.2069 6.2069 6.82415 6.2069 7.58621C6.2069 8.34827 6.82415 8.96552 7.58621 8.96552H18.6207C19.3827 8.96552 20 8.34827 20 7.58621C20 6.82415 19.3827 6.2069 18.6207 6.2069ZM18.6207 11.7242H7.58621C6.82415 11.7242 6.2069 12.3414 6.2069 13.1034C6.2069 13.8655 6.82415 14.4827 7.58621 14.4827H18.6207C19.3827 14.4827 20 13.8655 20 13.1034C20 12.3414 19.3827 11.7242 18.6207 11.7242Z" fill="#D5D5D5"/>
</svg>
