<svg width="24" height="25" viewBox="0 0 24 25" fill="none" xmlns="http://www.w3.org/2000/svg">
<path d="M3.55636 1.23091L8.28 5.95455H0.0981817C0.265139 4.95164 0.66497 4.00186 1.26556 3.1815C1.86615 2.36113 2.65076 1.69305 3.55636 1.23091ZM9.90545 0.500001H6.54545C6.33818 0.500001 6.13091 0.51091 5.92364 0.521819L11.3564 5.95455H15.36L9.90545 0.500001ZM17.4545 0.500001H13.0036L18.4582 5.95455H23.9018C23.6463 4.42953 22.8582 3.04456 21.6777 2.04584C20.4972 1.04713 19.0008 0.499387 17.4545 0.500001ZM10.344 18.6375L15.7985 15.6375C15.9696 15.5433 16.1122 15.4049 16.2116 15.2368C16.3109 15.0687 16.3633 14.8771 16.3633 14.6818C16.3633 14.4866 16.3109 14.2949 16.2116 14.1268C16.1122 13.9587 15.9696 13.8204 15.7985 13.7262L10.344 10.7262C10.1779 10.6348 9.99087 10.5883 9.80132 10.5912C9.61178 10.5942 9.42627 10.6464 9.26308 10.7429C9.09989 10.8393 8.96465 10.9767 8.87069 11.1413C8.77674 11.306 8.72731 11.4923 8.72727 11.6818V17.6818C8.72731 17.8714 8.77674 18.0577 8.87069 18.2223C8.96465 18.387 9.09989 18.5243 9.26308 18.6207C9.42627 18.7172 9.61178 18.7695 9.80132 18.7724C9.99087 18.7753 10.1779 18.7288 10.344 18.6375ZM24 8.13636V17.9545C23.9986 19.6901 23.3085 21.3541 22.0813 22.5813C20.8541 23.8085 19.1901 24.4986 17.4545 24.5H6.54545C4.80994 24.4986 3.14591 23.8085 1.91871 22.5813C0.691517 21.3541 0.00144446 19.6901 0 17.9545V8.13636H24Z" fill="white"/>
</svg>
