<svg width="22" height="25" viewBox="0 0 22 25" fill="none" xmlns="http://www.w3.org/2000/svg">
<g opacity="0.5">
<path d="M15.2764 10.8125C15.2764 10.2947 14.8566 9.875 14.3389 9.875H4.68262C4.16484 9.875 3.74512 10.2947 3.74512 10.8125C3.74512 11.3303 4.16484 11.75 4.68262 11.75H14.3389C14.8566 11.75 15.2764 11.3303 15.2764 10.8125ZM4.68262 13.625C4.16484 13.625 3.74512 14.0447 3.74512 14.5625C3.74512 15.0803 4.16484 15.5 4.68262 15.5H10.5472C11.065 15.5 11.4847 15.0803 11.4847 14.5625C11.4847 14.0447 11.065 13.625 10.5472 13.625H4.68262Z" fill="white"/>
<path d="M6.88542 22.625H3.75C2.71613 22.625 1.875 21.7839 1.875 20.75V4.25C1.875 3.21613 2.71613 2.375 3.75 2.375H15.276C16.3099 2.375 17.151 3.21613 17.151 4.25V10.0156C17.151 10.5334 17.5708 10.9531 18.0885 10.9531C18.6063 10.9531 19.026 10.5334 19.026 10.0156V4.25C19.026 2.18225 17.3438 0.5 15.276 0.5H3.75C1.68225 0.5 0 2.18225 0 4.25V20.75C0 22.8177 1.68225 24.5 3.75 24.5H6.88542C7.4032 24.5 7.82292 24.0803 7.82292 23.5625C7.82292 23.0447 7.4032 22.625 6.88542 22.625Z" fill="white"/>
<path d="M20.6869 14.0737C19.5903 12.9771 17.8061 12.977 16.7102 14.0729L11.5632 19.2086C11.4539 19.3176 11.3732 19.452 11.3283 19.5997L10.2074 23.29C10.1586 23.4506 10.1538 23.6214 10.1936 23.7845C10.2333 23.9476 10.3162 24.097 10.4334 24.2171C10.5506 24.3373 10.698 24.4238 10.86 24.4675C11.0221 24.5113 11.1929 24.5107 11.3547 24.4659L15.1387 23.4177C15.2944 23.3746 15.4364 23.292 15.5507 23.1778L20.687 18.0512C21.7836 16.9546 21.7836 15.1704 20.6869 14.0737ZM14.4006 21.6766L12.4969 22.204L13.054 20.3698L16.5269 16.9046L17.853 18.2307L14.4006 21.6766ZM19.3618 16.7248L19.1802 16.9061L17.8543 15.5802L18.0353 15.3996C18.4009 15.0341 18.9956 15.0341 19.3611 15.3996C19.7267 15.7651 19.7267 16.3599 19.3618 16.7248ZM14.3389 6.125H4.68262C4.16484 6.125 3.74512 6.54472 3.74512 7.0625C3.74512 7.58028 4.16484 8 4.68262 8H14.3389C14.8566 8 15.2764 7.58028 15.2764 7.0625C15.2764 6.54472 14.8566 6.125 14.3389 6.125Z" fill="white"/>
</g>
</svg>
