<svg width="34" height="34" viewBox="0 0 34 34" fill="none" xmlns="http://www.w3.org/2000/svg">
<g clip-path="url(#clip0_148_1023)">
<path d="M17.0003 31.167C18.5587 31.167 19.8337 29.892 19.8337 28.3337H14.167C14.167 29.892 15.442 31.167 17.0003 31.167ZM25.5003 22.667V15.5837C25.5003 11.2345 23.1912 7.59366 19.1253 6.63033V5.66699C19.1253 4.49116 18.1762 3.54199 17.0003 3.54199C15.8245 3.54199 14.8753 4.49116 14.8753 5.66699V6.63033C10.8237 7.59366 8.50033 11.2203 8.50033 15.5837V22.667L5.66699 25.5003V26.917H28.3337V25.5003L25.5003 22.667ZM22.667 24.0837H11.3337V15.5837C11.3337 12.0703 13.4728 9.20866 17.0003 9.20866C20.5278 9.20866 22.667 12.0703 22.667 15.5837V24.0837Z" fill="black"/>
</g>
<defs>
<clipPath id="clip0_148_1023">
<rect width="34" height="34" fill="white"/>
</clipPath>
</defs>
</svg>
