<svg width="6" height="11" viewBox="0 0 6 11" fill="none" xmlns="http://www.w3.org/2000/svg">
<path d="M6.00003 5.49997C6.0001 5.56564 5.98719 5.63067 5.96205 5.69134C5.93691 5.752 5.90003 5.8071 5.85353 5.85347L0.853531 10.8535C0.658156 11.0488 0.341781 11.0488 0.146531 10.8535C-0.0487188 10.6581 -0.0488438 10.3417 0.146531 10.1465L4.79303 5.49997L0.146531 0.853469C-0.0488442 0.658093 -0.0488442 0.341718 0.146531 0.146468C0.341906 -0.0487814 0.658281 -0.0489073 0.853531 0.146468L5.85353 5.14647C5.90003 5.19284 5.93691 5.24794 5.96205 5.3086C5.98719 5.36927 6.0001 5.4343 6.00003 5.49997Z" fill="white"/>
</svg>
