<svg width="14" height="14" viewBox="0 0 14 14" fill="none" xmlns="http://www.w3.org/2000/svg">
<path d="M13.8131 9.30473C13.6937 9.17351 13.5319 9.09979 13.3632 9.09979C13.1945 9.09979 13.0327 9.17351 12.9133 9.30473L10.818 11.6097V0.699972C10.818 0.514328 10.751 0.336287 10.6317 0.205017C10.5123 0.0737469 10.3505 0 10.1817 0C10.013 0 9.85112 0.0737469 9.73179 0.205017C9.61246 0.336287 9.54543 0.514328 9.54543 0.699972V11.6097L7.45011 9.30473C7.3301 9.17723 7.16937 9.10668 7.00253 9.10827C6.8357 9.10986 6.67611 9.18348 6.55813 9.31326C6.44016 9.44304 6.37324 9.6186 6.37179 9.80213C6.37034 9.98566 6.43448 10.1625 6.55038 10.2945L9.73186 13.7944C9.79097 13.8595 9.86118 13.9113 9.93849 13.9465C10.0158 13.9818 10.0987 14 10.1824 14C10.2661 14 10.3489 13.9818 10.4262 13.9465C10.5035 13.9113 10.5738 13.8595 10.6329 13.7944L13.8143 10.2945C13.9335 10.163 14.0002 9.98493 14 9.79932C13.9998 9.61372 13.9325 9.43581 13.8131 9.30473ZM7.45011 3.70495L4.26863 0.205092C4.20937 0.139771 4.13884 0.0881296 4.06119 0.0531979C3.90554 -0.0175812 3.73072 -0.0175812 3.57506 0.0531979C3.49742 0.0881296 3.42689 0.139771 3.36763 0.205092L0.186152 3.70495C0.0668418 3.83639 -0.000119169 4.01458 1.59215e-07 4.20033C0.000119488 4.38608 0.0673094 4.56416 0.186789 4.69542C0.306268 4.82667 0.46825 4.90033 0.6371 4.9002C0.80595 4.90007 0.967837 4.82615 1.08715 4.69472L3.18247 2.38971V13.2995C3.18247 13.4851 3.24951 13.6632 3.36884 13.7944C3.48816 13.9257 3.65001 13.9994 3.81877 13.9994C3.98752 13.9994 4.14937 13.9257 4.26869 13.7944C4.38802 13.6632 4.45506 13.4851 4.45506 13.2995V2.38971L6.55038 4.69472C6.67039 4.82222 6.83112 4.89277 6.99795 4.89118C7.16479 4.88958 7.32438 4.81597 7.44235 4.68619C7.56033 4.55641 7.62725 4.38085 7.6287 4.19732C7.63015 4.01379 7.56601 3.83697 7.45011 3.70495Z" fill="black"/>
</svg>
