<svg width="80" height="80" viewBox="0 0 80 80" fill="none" xmlns="http://www.w3.org/2000/svg">
<path d="M52.2253 71.4124C50.3352 71.4054 48.4964 70.7968 46.9753 69.6749L41.5753 65.7249C40.9053 65.2315 40.095 64.9653 39.2628 64.9653C38.4307 64.9653 37.6204 65.2315 36.9503 65.7249L31.5503 69.6749C30.1539 70.6947 28.4913 71.2869 26.7646 71.3795C25.0379 71.4721 23.3215 71.0612 21.824 70.1966C20.3265 69.332 19.1124 68.051 18.3293 66.5093C17.5462 64.9676 17.2278 63.2316 17.4128 61.5124L18.1378 54.8624C18.2309 54.036 18.0565 53.2015 17.6403 52.4816C17.2241 51.7616 16.5879 51.1941 15.8253 50.8624L9.71282 48.1624C8.1269 47.4671 6.77787 46.3248 5.83062 44.8753C4.88336 43.4257 4.37891 41.7315 4.37891 39.9999C4.37891 38.2682 4.88336 36.5741 5.83062 35.1245C6.77787 33.6749 8.1269 32.5327 9.71282 31.8374L15.8253 29.1374C16.5879 28.8057 17.2241 28.2382 17.6403 27.5182C18.0565 26.7982 18.2309 25.9638 18.1378 25.1374L17.4128 18.4874C17.2278 16.7681 17.5462 15.0322 18.3293 13.4905C19.1124 11.9488 20.3265 10.6678 21.824 9.8032C23.3215 8.9386 25.0379 8.52762 26.7646 8.62024C28.4913 8.71285 30.1539 9.30506 31.5503 10.3249L36.9503 14.2749C37.6204 14.7683 38.4307 15.0344 39.2628 15.0344C40.095 15.0344 40.9053 14.7683 41.5753 14.2749L46.9753 10.3249C47.9369 9.61313 49.0343 9.10615 50.1996 8.83525C51.3649 8.56435 52.5734 8.5353 53.7503 8.74988C54.9527 8.96804 56.0985 9.42711 57.1188 10.0995C58.1392 10.7718 59.013 11.6436 59.6878 12.6624C59.8749 12.9364 60.0056 13.2449 60.0722 13.57C60.1388 13.895 60.1401 14.23 60.0759 14.5556C60.0117 14.8811 59.8834 15.1906 59.6984 15.466C59.5134 15.7414 59.2754 15.9773 58.9983 16.1598C58.7212 16.3423 58.4106 16.4678 58.0845 16.5291C57.7584 16.5903 57.4234 16.586 57.099 16.5164C56.7745 16.4469 56.4672 16.3134 56.1949 16.1239C55.9226 15.9343 55.6907 15.6925 55.5128 15.4124C55.2111 14.959 54.8208 14.5714 54.3654 14.2728C53.91 13.9742 53.3989 13.7708 52.8628 13.6749C52.3467 13.5797 51.8163 13.5939 51.3059 13.7167C50.7956 13.8394 50.3168 14.0679 49.9003 14.3874L44.5003 18.3374C42.972 19.4576 41.1264 20.0615 39.2316 20.0615C37.3367 20.0615 35.4911 19.4576 33.9628 18.3374L28.5753 14.3874C27.9631 13.9225 27.2274 13.6483 26.4602 13.599C25.693 13.5497 24.9283 13.7275 24.2616 14.1102C23.5949 14.4929 23.0556 15.0635 22.7113 15.7509C22.3669 16.4382 22.2327 17.2117 22.3253 17.9749L23.0503 24.6124C23.2682 26.4905 22.8815 28.3892 21.9464 30.0325C21.0112 31.6758 19.5763 32.978 17.8503 33.7499L11.7253 36.4499C11.0311 36.758 10.4411 37.261 10.0271 37.8978C9.61303 38.5346 9.39264 39.2778 9.39264 40.0374C9.39264 40.7969 9.61303 41.5402 10.0271 42.177C10.4411 42.8138 11.0311 43.3167 11.7253 43.6249L17.8503 46.2499C19.5857 47.0111 21.0324 48.3071 21.9791 49.9487C22.9259 51.5903 23.3231 53.4916 23.1128 55.3749L22.3878 62.0124C22.2952 62.7755 22.4294 63.5491 22.7738 64.2364C23.1181 64.9237 23.6574 65.4944 24.3241 65.8771C24.9908 66.2598 25.7555 66.4376 26.5227 66.3883C27.2899 66.339 28.0256 66.0648 28.6378 65.5999L34.0253 61.6499C35.5536 60.5297 37.3992 59.9258 39.2941 59.9258C41.1889 59.9258 43.0345 60.5297 44.5628 61.6499L49.9628 65.5999C50.5751 66.0648 51.3108 66.339 52.0779 66.3883C52.8451 66.4376 53.6098 66.2598 54.2766 65.8771C54.9433 65.4944 55.4825 64.9237 55.8269 64.2364C56.1712 63.5491 56.3055 62.7755 56.2128 62.0124L55.4878 55.3749C55.2697 53.4999 55.6551 51.6043 56.588 49.9633C57.5209 48.3223 58.9527 47.0215 60.6753 46.2499L66.8003 43.5499C67.4946 43.2417 68.0845 42.7388 68.4986 42.102C68.9126 41.4652 69.133 40.7219 69.133 39.9624C69.133 39.2028 68.9126 38.4596 68.4986 37.8228C68.0845 37.186 67.4946 36.683 66.8003 36.3749L63.4753 34.9999C63.1659 34.8739 62.8848 34.6871 62.6487 34.4506C62.4127 34.2141 62.2264 33.9327 62.101 33.623C61.9755 33.3133 61.9135 32.9816 61.9184 32.6475C61.9233 32.3134 61.9952 31.9837 62.1297 31.6778C62.2643 31.372 62.4588 31.0962 62.7017 30.8668C62.9447 30.6374 63.2311 30.459 63.5442 30.3422C63.8572 30.2254 64.1905 30.1725 64.5244 30.1867C64.8582 30.2009 65.1858 30.2819 65.4878 30.4249L68.8128 31.8874C70.3988 32.5827 71.7478 33.7249 72.695 35.1745C73.6423 36.6241 74.1467 38.3182 74.1467 40.0499C74.1467 41.7815 73.6423 43.4757 72.695 44.9253C71.7478 46.3748 70.3988 47.5171 68.8128 48.2124L62.7003 50.9124C61.9378 51.2453 61.3013 51.8126 60.8832 52.5319C60.4651 53.2512 60.2872 54.0851 60.3753 54.9124L61.1003 61.5624C61.3102 63.2834 61.0039 65.0281 60.2206 66.5748C59.4372 68.1215 58.2119 69.4007 56.7003 70.2499C55.336 71.0221 53.793 71.4229 52.2253 71.4124Z" fill="#00A0E3"/>
<path d="M39.55 48.7503C39.2201 48.7506 38.8934 48.6856 38.5888 48.559C38.2841 48.4324 38.0075 48.2468 37.775 48.0128L27.0125 37.2503C26.7442 37.0274 26.5256 36.7508 26.3706 36.4383C26.2157 36.1258 26.1278 35.7844 26.1127 35.4359C26.0976 35.0875 26.1556 34.7397 26.2829 34.415C26.4102 34.0903 26.6041 33.7958 26.852 33.5505C27.1 33.3051 27.3965 33.1144 27.7226 32.9906C28.0486 32.8667 28.397 32.8124 28.7453 32.8313C29.0936 32.8501 29.434 32.9416 29.7449 33.0999C30.0557 33.2581 30.3299 33.4797 30.55 33.7503L39.55 42.7503L71.35 10.9003C71.8263 10.4702 72.4498 10.2398 73.0913 10.2567C73.7328 10.2737 74.3433 10.5366 74.7963 10.9912C75.2493 11.4458 75.5101 12.0572 75.5247 12.6988C75.5394 13.3404 75.3067 13.963 74.875 14.4378L41.3125 48.0003C41.0824 48.2351 40.8083 48.4221 40.5059 48.5508C40.2035 48.6795 39.8786 48.7473 39.55 48.7503Z" fill="#FEDB00"/>
</svg>
