<svg width="24" height="25" viewBox="0 0 24 25" fill="none" xmlns="http://www.w3.org/2000/svg">
<path fill-rule="evenodd" clip-rule="evenodd" d="M8.3355 12.353C8.3355 14.3777 9.97525 16.0175 12 16.0175C14.0248 16.0175 15.6645 14.3778 15.6645 12.353H8.3355ZM23.6895 9.76248H17.5954C17.3135 8.79558 16.7912 7.94078 16.1024 7.25943C16.9318 6.31763 18.1465 5.72338 19.5 5.72338C21.7253 5.72338 23.5753 7.32933 23.9548 9.44543C23.9619 9.48426 23.9604 9.52418 23.9503 9.56236C23.9403 9.60053 23.9219 9.63602 23.8966 9.66629C23.8713 9.69657 23.8396 9.72089 23.8038 9.73751C23.768 9.75414 23.7289 9.76267 23.6895 9.76248ZM24 12.353V13.977L22.0115 14.7424C21.7591 15.8017 21.3394 16.8141 20.7682 17.7412L21.6337 19.6899L19.337 21.9867L17.3889 21.1214C16.4615 21.6928 15.4489 22.1126 14.3893 22.3649L13.624 24.353H10.376L9.61055 22.3644C8.55119 22.1121 7.53886 21.6924 6.6117 21.1212L4.663 21.9867L2.36625 19.69L3.2315 17.7419C2.66009 16.8145 2.24032 15.8019 1.988 14.7422L0 13.977V12.353H6.3355C6.3355 15.4817 8.8713 18.0175 11.9999 18.0175C15.1286 18.0175 17.6645 15.4817 17.6645 12.353H24ZM12.0001 0.786134C13.4044 0.786134 14.5427 1.92453 14.5427 3.32873C14.5427 4.73293 13.4043 5.87133 12.0001 5.87133C10.5959 5.87133 9.45745 4.73293 9.45745 3.32873C9.45745 1.92453 10.5958 0.786134 12.0001 0.786134ZM7.34525 10.8592L16.6548 10.8591C16.6987 10.8593 16.742 10.8498 16.7818 10.8314C16.8216 10.8129 16.8568 10.7859 16.885 10.7522C16.9131 10.7186 16.9335 10.6792 16.9447 10.6367C16.9558 10.5943 16.9575 10.55 16.9496 10.5068C16.5238 8.13283 14.4494 6.37138 12.0001 6.37138C9.5276 6.37138 7.4721 8.15573 7.0505 10.5068C7.04257 10.55 7.04425 10.5943 7.05541 10.6368C7.06658 10.6792 7.08696 10.7186 7.1151 10.7522C7.14325 10.7859 7.17846 10.8129 7.21824 10.8314C7.25802 10.8499 7.30139 10.8594 7.34525 10.8592ZM4.50005 0.646484C5.7639 0.646484 6.7885 1.67103 6.7885 2.93493C6.7885 4.19878 5.7639 5.22338 4.50005 5.22338C3.23615 5.22338 2.2116 4.19878 2.2116 2.93493C2.2116 1.67103 3.23615 0.646484 4.50005 0.646484ZM0.3106 9.76248C0.271122 9.76266 0.232092 9.75412 0.196288 9.73749C0.160484 9.72086 0.128787 9.69654 0.103454 9.66626C0.078122 9.63598 0.0597767 9.60049 0.0497251 9.56231C0.0396734 9.52414 0.0381625 9.48421 0.0453 9.44538C0.42475 7.32928 2.2748 5.72333 4.50005 5.72333C5.85365 5.72333 7.0683 6.31758 7.8977 7.25938C7.20885 7.94073 6.68655 8.79553 6.40465 9.76243L0.3106 9.76248ZM19.5001 0.646484C20.7639 0.646484 21.7885 1.67103 21.7885 2.93493C21.7885 4.19878 20.7639 5.22338 19.5001 5.22338C18.2362 5.22338 17.2116 4.19878 17.2116 2.93493C17.2116 1.67103 18.2362 0.646484 19.5001 0.646484Z" fill="white"/>
</svg>
